<svg width="1280" height="720" xmlns="http://www.w3.org/2000/svg" xmlns:xlink="http://www.w3.org/1999/xlink" overflow="hidden"><defs><filter id="fx0" x="-10%" y="-10%" width="120%" height="120%" filterUnits="userSpaceOnUse" primitiveUnits="userSpaceOnUse"><feComponentTransfer color-interpolation-filters="sRGB"><feFuncR type="discrete" tableValues="0.431373 0.431373"/><feFuncG type="discrete" tableValues="0.454902 0.454902"/><feFuncB type="discrete" tableValues="0.478431 0.478431"/><feFuncA type="linear" slope="0.431373" intercept="0"/></feComponentTransfer><feGaussianBlur stdDeviation="0.657459 0.657459"/></filter><linearGradient x1="640" y1="0" x2="640" y2="720" gradientUnits="userSpaceOnUse" spreadMethod="reflect" id="fill1"><stop offset="0" stop-color="#4E95D9" stop-opacity="0.411765"/><stop offset="0.81" stop-color="#4E95D9" stop-opacity="0.411765"/><stop offset="0.82" stop-color="#74C4E9" stop-opacity="0.878431"/><stop offset="1" stop-color="#74C4E9" stop-opacity="0.878431"/></linearGradient><clipPath id="clip2"><rect x="21" y="18" width="431" height="34"/></clipPath></defs><g><rect x="0" y="0" width="1280" height="720" fill="url(#fill1)"/><path d="M160.5 160.334C160.5 137.23 179.23 118.5 202.334 118.5L1078.67 118.5C1101.77 118.5 1120.5 137.23 1120.5 160.334L1120.5 327.666C1120.5 350.77 1101.77 369.5 1078.67 369.5L202.334 369.5C179.23 369.5 160.5 350.77 160.5 327.666Z" stroke="#FFFFFF" stroke-width="2.66667" stroke-miterlimit="8" fill="#156082" fill-rule="evenodd"/><text fill="#FFFFFF" font-family="Aptos,Aptos_MSFontService,sans-serif" font-weight="400" font-size="80" transform="translate(201.417 330)">PiS</text><text fill="#FFFFFF" font-family="Aptos,Aptos_MSFontService,sans-serif" font-weight="400" font-size="80" transform="translate(328.417 330)">—</text><text fill="#FFFFFF" font-family="Aptos,Aptos_MSFontService,sans-serif" font-weight="400" font-size="80" transform="translate(418.417 330)">New iDLE Program!</text><g clip-path="url(#clip2)" filter="url(#fx0)" transform="translate(404 383)"><g><path d="M2.75 0 2.75-21.0312 10.3438-21.0312C11.6458-21.0312 12.8177-20.7839 13.8594-20.2891 14.901-19.7943 15.724-19.0651 16.3281-18.1016 16.9323-17.138 17.2344-15.9583 17.2344-14.5625 17.2344-13.1979 16.9323-12.0521 16.3281-11.125 15.724-10.1979 14.901-9.49479 13.8594-9.01562 12.8177-8.53646 11.6458-8.29688 10.3438-8.29688L5.5625-8.29688 5.5625 0ZM5.5625-10.625 10.125-10.625C11.3958-10.625 12.4245-10.9505 13.2109-11.6016 13.9974-12.2526 14.3906-13.2396 14.3906-14.5625 14.3906-15.9792 13.9948-17.026 13.2031-17.7031 12.4115-18.3802 11.3854-18.7188 10.125-18.7188L5.5625-18.7188ZM20.174 5.59375 20.174 3.4375 21.4552 3.4375C22.049 3.4375 22.5516 3.27865 22.963 2.96094 23.3745 2.64323 23.726 2.11458 24.0177 1.375L24.6115 0 18.5333-15.2188 21.299-15.2188 26.0021-2.76562 30.3458-15.2188 33.0021-15.2188 27.2833 0 26.5646 1.84375C26.2104 2.75 25.8328 3.47917 25.4318 4.03125 25.0307 4.58333 24.5385 4.98177 23.9552 5.22656 23.3719 5.47135 22.6271 5.59375 21.7208 5.59375ZM40.6271 0C39.3979 0 38.4552-0.195312 37.799-0.585938 37.1427-0.976562 36.6922-1.53906 36.4474-2.27344 36.2026-3.00781 36.0802-3.89062 36.0802-4.92188L36.0802-13.1094 33.5333-13.1094 33.5333-15.2188 36.0802-15.2188 36.0802-18.7031 38.674-18.7031 38.674-15.2188 42.424-15.2188 42.424-13.1094 38.674-13.1094 38.674-5.04688C38.674-4.09896 38.7964-3.3724 39.0411-2.86719 39.2859-2.36198 39.8719-2.10938 40.799-2.10938L42.4552-2.10938 42.4552 0ZM45.8823 0 45.8823-21.0312 48.476-21.0312 48.476-12.875C48.9448-13.4896 49.6167-14.0703 50.4917-14.6172 51.3667-15.1641 52.4813-15.4375 53.8354-15.4375 55.5438-15.4375 56.7703-14.9479 57.5151-13.9688 58.2599-12.9896 58.6323-11.6042 58.6323-9.8125L58.6323 0 56.0229 0 56.0229-9.45312C56.0229-10.1823 55.9474-10.8333 55.7964-11.4062 55.6453-11.9792 55.3667-12.4297 54.9604-12.7578 54.5542-13.0859 53.9708-13.25 53.2104-13.25 52.075-13.25 51.1219-12.9922 50.351-12.4766 49.5802-11.9609 48.9604-11.3958 48.4917-10.7812L48.4917 0ZM69.7833 0.25C68.2938 0.25 67.0177-0.0651042 65.9552-0.695312 64.8927-1.32552 64.0828-2.22656 63.5255-3.39844 62.9682-4.57031 62.6896-5.96354 62.6896-7.57812 62.6896-9.23438 62.9682-10.6536 63.5255-11.8359 64.0828-13.0182 64.8927-13.9271 65.9552-14.5625 67.0177-15.1979 68.2938-15.5156 69.7833-15.5156 71.3042-15.5156 72.6037-15.1979 73.6818-14.5625 74.7599-13.9271 75.588-13.0182 76.1662-11.8359 76.7443-10.6536 77.0333-9.23438 77.0333-7.57812 77.0333-5.96354 76.7443-4.57031 76.1662-3.39844 75.588-2.22656 74.7599-1.32552 73.6818-0.695312 72.6037-0.0651042 71.3042 0.25 69.7833 0.25ZM69.7833-1.82812C70.9083-1.82812 71.8042-2.07552 72.4708-2.57031 73.1375-3.0651 73.6167-3.7474 73.9083-4.61719 74.2-5.48698 74.3458-6.47396 74.3458-7.57812 74.3458-8.70312 74.2-9.70833 73.9083-10.5938 73.6167-11.4792 73.1375-12.1745 72.4708-12.6797 71.8042-13.1849 70.9083-13.4375 69.7833-13.4375 68.6896-13.4375 67.8224-13.1849 67.1818-12.6797 66.5412-12.1745 66.0802-11.4792 65.799-10.5938 65.5177-9.70833 65.3771-8.70312 65.3771-7.57812 65.3771-6.47396 65.5177-5.48698 65.799-4.61719 66.0802-3.7474 66.5412-3.0651 67.1818-2.57031 67.8224-2.07552 68.6896-1.82812 69.7833-1.82812ZM81.2156 0 81.2156-15.2188 83.7156-15.2188 83.8094-12.875C84.2781-13.4896 84.95-14.0703 85.825-14.6172 86.7-15.1641 87.8198-15.4375 89.1844-15.4375 90.851-15.4375 92.0646-14.9453 92.825-13.9609 93.5854-12.9766 93.9656-11.5938 93.9656-9.8125L93.9656 0 91.3563 0 91.3563-9.4375C91.3563-10.1771 91.2781-10.8333 91.1219-11.4062 90.9656-11.9792 90.687-12.4297 90.2859-12.7578 89.8849-13.0859 89.3042-13.25 88.5438-13.25 87.4083-13.25 86.4552-12.9922 85.6844-12.4766 84.9135-11.9609 84.2937-11.3958 83.825-10.7812L83.825 0ZM105.382 0 105.382-15.2188 107.992-15.2188 107.992 0ZM106.679-18.0781C106.19-18.0781 105.796-18.2214 105.499-18.5078 105.203-18.7943 105.054-19.1562 105.054-19.5938 105.054-20.0312 105.203-20.3932 105.499-20.6797 105.796-20.9661 106.19-21.1094 106.679-21.1094 107.169-21.1094 107.565-20.9661 107.867-20.6797 108.169-20.3932 108.32-20.0312 108.32-19.5938 108.32-19.1562 108.169-18.7943 107.867-18.5078 107.565-18.2214 107.169-18.0781 106.679-18.0781ZM113.283 0 113.283-21.0312 120.361-21.0312C122.559-21.0312 124.434-20.6172 125.986-19.7891 127.539-18.9609 128.721-17.7604 129.533-16.1875 130.346-14.6146 130.752-12.724 130.752-10.5156 130.752-8.29688 130.343-6.40104 129.526-4.82812 128.708-3.25521 127.523-2.05729 125.971-1.23438 124.419-0.411458 122.549 0 120.361 0ZM116.096-2.35938 119.736-2.35938C121.58-2.35938 123.101-2.65365 124.299-3.24219 125.497-3.83073 126.39-4.73177 126.979-5.94531 127.567-7.15885 127.861-8.6875 127.861-10.5312 127.861-12.3646 127.562-13.8828 126.963-15.0859 126.364-16.2891 125.463-17.1875 124.26-17.7812 123.057-18.375 121.549-18.6719 119.736-18.6719L116.096-18.6719ZM135.283 0 135.283-21.0312 138.096-21.0312 138.096-2.42188 147.924-2.42188 147.924 0ZM151.283 0 151.283-21.0312 164.705-21.0312 164.705-18.6875 154.096-18.6875 154.096-11.9844 163.861-11.9844 163.861-9.67188 154.096-9.67188 154.096-2.34375 164.705-2.34375 164.705 0ZM182.07 0.28125C180.57 0.28125 179.216 0.0520833 178.007-0.40625 176.799-0.864583 175.838-1.58333 175.124-2.5625 174.411-3.54167 174.054-4.8125 174.054-6.375L176.882-6.375C176.882-5.26042 177.124-4.38542 177.609-3.75 178.093-3.11458 178.736-2.66667 179.539-2.40625 180.341-2.14583 181.221-2.01562 182.179-2.01562 183.065-2.01562 183.874-2.14844 184.609-2.41406 185.343-2.67969 185.929-3.08073 186.367-3.61719 186.804-4.15365 187.023-4.84375 187.023-5.6875 187.023-6.41667 186.851-7.01562 186.507-7.48438 186.164-7.95312 185.593-8.36198 184.796-8.71094 183.999-9.0599 182.929-9.40625 181.585-9.75 180.002-10.1667 178.7-10.6224 177.679-11.1172 176.658-11.612 175.901-12.2292 175.406-12.9688 174.911-13.7083 174.664-14.6458 174.664-15.7812 174.664-16.9792 174.945-17.987 175.507-18.8047 176.07-19.6224 176.877-20.2448 177.929-20.6719 178.981-21.099 180.231-21.3125 181.679-21.3125 183.033-21.3125 184.273-21.0938 185.398-20.6562 186.523-20.2188 187.421-19.5625 188.093-18.6875 188.765-17.8125 189.101-16.724 189.101-15.4219L186.289-15.4219C186.299-16.6094 185.861-17.5078 184.976-18.1172 184.091-18.7266 182.997-19.0312 181.695-19.0312 180.351-19.0312 179.307-18.763 178.562-18.2266 177.817-17.6901 177.445-16.9062 177.445-15.875 177.445-15.2604 177.606-14.7474 177.929-14.3359 178.252-13.9245 178.807-13.5521 179.593-13.2188 180.38-12.8854 181.476-12.5365 182.882-12.1719 184.507-11.7344 185.828-11.2656 186.843-10.7656 187.859-10.2656 188.606-9.625 189.085-8.84375 189.565-8.0625 189.804-7.03646 189.804-5.76562 189.804-4.41146 189.466-3.28906 188.789-2.39844 188.111-1.50781 187.19-0.838542 186.023-0.390625 184.856 0.0572916 183.539 0.28125 182.07 0.28125ZM193.549 0 193.549-21.0312 196.143-21.0312 196.143-12.875C196.611-13.4896 197.283-14.0703 198.158-14.6172 199.033-15.1641 200.148-15.4375 201.502-15.4375 203.21-15.4375 204.437-14.9479 205.182-13.9688 205.927-12.9896 206.299-11.6042 206.299-9.8125L206.299 0 203.69 0 203.69-9.45312C203.69-10.1823 203.614-10.8333 203.463-11.4062 203.312-11.9792 203.033-12.4297 202.627-12.7578 202.221-13.0859 201.637-13.25 200.877-13.25 199.742-13.25 198.789-12.9922 198.018-12.4766 197.247-11.9609 196.627-11.3958 196.158-10.7812L196.158 0ZM217.544 0.28125C215.887 0.28125 214.531-0.0651042 213.473-0.757812 212.416-1.45052 211.632-2.39323 211.122-3.58594 210.611-4.77865 210.356-6.11979 210.356-7.60938 210.356-9.16146 210.604-10.5286 211.098-11.7109 211.593-12.8932 212.348-13.8177 213.364-14.4844 214.38-15.151 215.669-15.4844 217.231-15.4844 219.304-15.4844 220.929-14.8594 222.106-13.6094 223.283-12.3594 223.872-10.5625 223.872-8.21875 223.872-8.0625 223.867-7.8776 223.856-7.66406 223.846-7.45052 223.83-7.29688 223.809-7.20312L212.966-7.20312C212.976-6.21354 213.135-5.30469 213.442-4.47656 213.749-3.64844 214.236-2.98437 214.903-2.48438 215.57-1.98437 216.45-1.73437 217.544-1.73438 218.71-1.73437 219.622-2.00781 220.278-2.55469 220.934-3.10156 221.278-3.89062 221.309-4.92188L223.887-4.92188C223.856-3.84896 223.58-2.92448 223.059-2.14844 222.539-1.3724 221.809-0.773437 220.872-0.351562 219.934 0.0703125 218.825 0.28125 217.544 0.28125ZM212.981-9.10938 221.294-9.10938C221.262-10.526 220.893-11.6094 220.184-12.3594 219.476-13.1094 218.492-13.4844 217.231-13.4844 215.96-13.4844 214.963-13.112 214.239-12.3672 213.515-11.6224 213.096-10.5365 212.981-9.10938ZM232.424 0C231.184 0 230.236-0.195312 229.58-0.585938 228.924-0.976562 228.476-1.53906 228.236-2.27344 227.997-3.00781 227.877-3.89062 227.877-4.92188L227.877-21.0312 230.471-21.0312 230.471-5.04688C230.471-4.09896 230.593-3.375 230.838-2.875 231.083-2.375 231.669-2.125 232.596-2.125L233.299-2.125 233.299 0ZM240.757 0C239.518 0 238.57-0.195312 237.914-0.585938 237.257-0.976562 236.809-1.53906 236.57-2.27344 236.33-3.00781 236.21-3.89062 236.21-4.92188L236.21-21.0312 238.804-21.0312 238.804-5.04688C238.804-4.09896 238.927-3.375 239.171-2.875 239.416-2.375 240.002-2.125 240.929-2.125L241.632-2.125 241.632 0ZM256.387 0 248.825-21.0312 251.809-21.0312 258.059-2.96875 264.341-21.0312 267.309-21.0312 259.669 0ZM274.85 0.28125C273.194 0.28125 271.837-0.0651042 270.78-0.757812 269.723-1.45052 268.939-2.39323 268.429-3.58594 267.918-4.77865 267.663-6.11979 267.663-7.60938 267.663-9.16146 267.91-10.5286 268.405-11.7109 268.9-12.8932 269.655-13.8177 270.671-14.4844 271.686-15.151 272.975-15.4844 274.538-15.4844 276.611-15.4844 278.236-14.8594 279.413-13.6094 280.59-12.3594 281.179-10.5625 281.179-8.21875 281.179-8.0625 281.173-7.8776 281.163-7.66406 281.152-7.45052 281.137-7.29688 281.116-7.20312L270.272-7.20312C270.283-6.21354 270.442-5.30469 270.749-4.47656 271.056-3.64844 271.543-2.98437 272.21-2.48438 272.876-1.98437 273.757-1.73437 274.85-1.73438 276.017-1.73437 276.929-2.00781 277.585-2.55469 278.241-3.10156 278.585-3.89062 278.616-4.92188L281.194-4.92188C281.163-3.84896 280.887-2.92448 280.366-2.14844 279.845-1.3724 279.116-0.773437 278.179-0.351562 277.241 0.0703125 276.132 0.28125 274.85 0.28125ZM270.288-9.10938 278.6-9.10938C278.569-10.526 278.199-11.6094 277.491-12.3594 276.783-13.1094 275.798-13.4844 274.538-13.4844 273.267-13.4844 272.27-13.112 271.546-12.3672 270.822-11.6224 270.402-10.5365 270.288-9.10938ZM285.356 0 285.356-15.2188 287.809-15.2188 287.902-12.625C288.33-13.4167 288.923-14.0781 289.684-14.6094 290.444-15.1406 291.434-15.4062 292.652-15.4062L292.965-15.4062 292.965-13.0156 292.606-13.0156C291.845-13.0156 291.179-12.9167 290.606-12.7188 290.033-12.5208 289.533-12.2474 289.106-11.8984 288.679-11.5495 288.298-11.1458 287.965-10.6875L287.965 0ZM301.1 0.28125C300.245 0.28125 299.436 0.1875 298.67 0 297.904-0.1875 297.23-0.484375 296.646-0.890625 296.063-1.29688 295.607-1.83073 295.279-2.49219 294.951-3.15365 294.787-3.95312 294.787-4.89062L297.303-4.89062C297.303-3.70312 297.67-2.86719 298.404-2.38281 299.139-1.89844 300.058-1.65625 301.162-1.65625 302.152-1.65625 302.967-1.84635 303.607-2.22656 304.248-2.60677 304.568-3.23438 304.568-4.10938 304.568-4.85938 304.279-5.41667 303.701-5.78125 303.123-6.14583 302.105-6.5 300.646-6.84375 299.459-7.125 298.459-7.45052 297.646-7.82031 296.834-8.1901 296.225-8.65885 295.818-9.22656 295.412-9.79427 295.209-10.5104 295.209-11.375 295.209-12.0521 295.352-12.6484 295.639-13.1641 295.925-13.6797 296.326-14.1094 296.842-14.4531 297.357-14.7969 297.964-15.0547 298.662-15.2266 299.36-15.3984 300.115-15.4844 300.928-15.4844 301.73-15.4844 302.482-15.3906 303.186-15.2031 303.889-15.0156 304.508-14.724 305.045-14.3281 305.581-13.9323 306.006-13.4219 306.318-12.7969 306.631-12.1719 306.787-11.4219 306.787-10.5469L304.256-10.5469C304.256-11.6302 303.933-12.3958 303.287-12.8438 302.641-13.2917 301.855-13.5156 300.928-13.5156 299.99-13.5156 299.23-13.349 298.646-13.0156 298.063-12.6823 297.771-12.1615 297.771-11.4531 297.771-11.0469 297.902-10.7031 298.162-10.4219 298.422-10.1406 298.86-9.88802 299.475-9.66406 300.089-9.4401 300.917-9.20312 301.959-8.95312 303.094-8.68229 304.047-8.35938 304.818-7.98438 305.589-7.60938 306.17-7.1276 306.561-6.53906 306.951-5.95052 307.146-5.19792 307.146-4.28125 307.146-3.48958 306.993-2.80469 306.686-2.22656 306.378-1.64844 305.951-1.17448 305.404-0.804688 304.857-0.434896 304.217-0.161458 303.482 0.015625 302.748 0.192708 301.954 0.28125 301.1 0.28125ZM311.209 0 311.209-15.2188 313.818-15.2188 313.818 0ZM312.506-18.0781C312.016-18.0781 311.623-18.2214 311.326-18.5078 311.029-18.7943 310.881-19.1562 310.881-19.5938 310.881-20.0312 311.029-20.3932 311.326-20.6797 311.623-20.9661 312.016-21.1094 312.506-21.1094 312.995-21.1094 313.391-20.9661 313.693-20.6797 313.995-20.3932 314.146-20.0312 314.146-19.5938 314.146-19.1562 313.995-18.7943 313.693-18.5078 313.391-18.2214 312.995-18.0781 312.506-18.0781ZM325.11 0.25C323.62 0.25 322.344-0.0651042 321.282-0.695312 320.219-1.32552 319.409-2.22656 318.852-3.39844 318.295-4.57031 318.016-5.96354 318.016-7.57812 318.016-9.23438 318.295-10.6536 318.852-11.8359 319.409-13.0182 320.219-13.9271 321.282-14.5625 322.344-15.1979 323.62-15.5156 325.11-15.5156 326.631-15.5156 327.93-15.1979 329.008-14.5625 330.087-13.9271 330.915-13.0182 331.493-11.8359 332.071-10.6536 332.36-9.23438 332.36-7.57812 332.36-5.96354 332.071-4.57031 331.493-3.39844 330.915-2.22656 330.087-1.32552 329.008-0.695312 327.93-0.0651042 326.631 0.25 325.11 0.25ZM325.11-1.82812C326.235-1.82812 327.131-2.07552 327.797-2.57031 328.464-3.0651 328.943-3.7474 329.235-4.61719 329.527-5.48698 329.672-6.47396 329.672-7.57812 329.672-8.70312 329.527-9.70833 329.235-10.5938 328.943-11.4792 328.464-12.1745 327.797-12.6797 327.131-13.1849 326.235-13.4375 325.11-13.4375 324.016-13.4375 323.149-13.1849 322.508-12.6797 321.868-12.1745 321.407-11.4792 321.126-10.5938 320.844-9.70833 320.704-8.70312 320.704-7.57812 320.704-6.47396 320.844-5.48698 321.126-4.61719 321.407-3.7474 321.868-3.0651 322.508-2.57031 323.149-2.07552 324.016-1.82812 325.11-1.82812ZM336.542 0 336.542-15.2188 339.042-15.2188 339.136-12.875C339.605-13.4896 340.277-14.0703 341.152-14.6172 342.027-15.1641 343.146-15.4375 344.511-15.4375 346.178-15.4375 347.391-14.9453 348.152-13.9609 348.912-12.9766 349.292-11.5938 349.292-9.8125L349.292 0 346.683 0 346.683-9.4375C346.683-10.1771 346.605-10.8333 346.449-11.4062 346.292-11.9792 346.014-12.4297 345.613-12.7578 345.212-13.0859 344.631-13.25 343.87-13.25 342.735-13.25 341.782-12.9922 341.011-12.4766 340.24-11.9609 339.62-11.3958 339.152-10.7812L339.152 0ZM366.6 0 366.6-17.125C366.318-16.7396 365.92-16.3672 365.404-16.0078 364.889-15.6484 364.277-15.3281 363.568-15.0469 362.86-14.7656 362.068-14.5625 361.193-14.4375L361.193-16.9062C362.058-17.0521 362.863-17.3177 363.607-17.7031 364.352-18.0885 365.008-18.5312 365.576-19.0312 366.144-19.5312 366.589-20.0104 366.912-20.4688L369.334-20.4688 369.334 0ZM379.954 0.15625C379.37 0.15625 378.886-0.0338542 378.501-0.414062 378.115-0.794271 377.922-1.26042 377.922-1.8125 377.922-2.38542 378.115-2.85677 378.501-3.22656 378.886-3.59635 379.37-3.78125 379.954-3.78125 380.527-3.78125 381.001-3.59635 381.376-3.22656 381.751-2.85677 381.938-2.38542 381.938-1.8125 381.938-1.26042 381.751-0.794271 381.376-0.414062 381.001-0.0338542 380.527 0.15625 379.954 0.15625ZM393.073 0.28125C391.761 0.28125 390.654 0.0130208 389.753-0.523438 388.852-1.0599 388.128-1.80469 387.581-2.75781 387.034-3.71094 386.639-4.81771 386.394-6.07812 386.149-7.33854 386.027-8.69792 386.027-10.1562 386.027-11.6354 386.149-13.0104 386.394-14.2812 386.639-15.5521 387.034-16.6667 387.581-17.625 388.128-18.5833 388.852-19.3307 389.753-19.8672 390.654-20.4036 391.761-20.6719 393.073-20.6719 394.386-20.6719 395.493-20.4062 396.394-19.875 397.295-19.3438 398.016-18.5964 398.558-17.6328 399.1-16.6693 399.493-15.5547 399.738-14.2891 399.982-13.0234 400.105-11.6562 400.105-10.1875 400.105-8.71875 399.982-7.35156 399.738-6.08594 399.493-4.82031 399.1-3.71094 398.558-2.75781 398.016-1.80469 397.295-1.0599 396.394-0.523438 395.493 0.0130208 394.386 0.28125 393.073 0.28125ZM393.073-2C393.938-2 394.646-2.23438 395.198-2.70312 395.751-3.17188 396.18-3.79948 396.488-4.58594 396.795-5.3724 397.008-6.2526 397.128-7.22656 397.248-8.20052 397.308-9.1875 397.308-10.1875 397.308-11.1979 397.248-12.1901 397.128-13.1641 397.008-14.138 396.795-15.0182 396.488-15.8047 396.18-16.5911 395.751-17.2188 395.198-17.6875 394.646-18.1562 393.938-18.3906 393.073-18.3906 392.209-18.3906 391.498-18.1562 390.941-17.6875 390.383-17.2188 389.948-16.5911 389.636-15.8047 389.323-15.0182 389.107-14.138 388.988-13.1641 388.868-12.1901 388.808-11.1979 388.808-10.1875 388.808-9.1875 388.868-8.20052 388.988-7.22656 389.107-6.2526 389.323-5.3724 389.636-4.58594 389.948-3.79948 390.383-3.17188 390.941-2.70312 391.498-2.23438 392.209-2 393.073-2ZM406.287 0.15625C405.704 0.15625 405.219-0.0338542 404.834-0.414062 404.448-0.794271 404.256-1.26042 404.256-1.8125 404.256-2.38542 404.448-2.85677 404.834-3.22656 405.219-3.59635 405.704-3.78125 406.287-3.78125 406.86-3.78125 407.334-3.59635 407.709-3.22656 408.084-2.85677 408.271-2.38542 408.271-1.8125 408.271-1.26042 408.084-0.794271 407.709-0.414062 407.334-0.0338542 406.86 0.15625 406.287 0.15625ZM419.407 0.28125C418.094 0.28125 416.988 0.0130208 416.086-0.523438 415.185-1.0599 414.461-1.80469 413.915-2.75781 413.368-3.71094 412.972-4.81771 412.727-6.07812 412.482-7.33854 412.36-8.69792 412.36-10.1562 412.36-11.6354 412.482-13.0104 412.727-14.2812 412.972-15.5521 413.368-16.6667 413.915-17.625 414.461-18.5833 415.185-19.3307 416.086-19.8672 416.988-20.4036 418.094-20.6719 419.407-20.6719 420.719-20.6719 421.826-20.4062 422.727-19.875 423.628-19.3438 424.349-18.5964 424.891-17.6328 425.433-16.6693 425.826-15.5547 426.071-14.2891 426.316-13.0234 426.438-11.6562 426.438-10.1875 426.438-8.71875 426.316-7.35156 426.071-6.08594 425.826-4.82031 425.433-3.71094 424.891-2.75781 424.349-1.80469 423.628-1.0599 422.727-0.523438 421.826 0.0130208 420.719 0.28125 419.407 0.28125ZM419.407-2C420.271-2 420.98-2.23438 421.532-2.70312 422.084-3.17188 422.514-3.79948 422.821-4.58594 423.128-5.3724 423.342-6.2526 423.461-7.22656 423.581-8.20052 423.641-9.1875 423.641-10.1875 423.641-11.1979 423.581-12.1901 423.461-13.1641 423.342-14.138 423.128-15.0182 422.821-15.8047 422.514-16.5911 422.084-17.2188 421.532-17.6875 420.98-18.1562 420.271-18.3906 419.407-18.3906 418.542-18.3906 417.831-18.1562 417.274-17.6875 416.717-17.2188 416.282-16.5911 415.969-15.8047 415.657-15.0182 415.441-14.138 415.321-13.1641 415.201-12.1901 415.141-11.1979 415.141-10.1875 415.141-9.1875 415.201-8.20052 415.321-7.22656 415.441-6.2526 415.657-5.3724 415.969-4.58594 416.282-3.79948 416.717-3.17188 417.274-2.70312 417.831-2.23438 418.542-2 419.407-2Z" fill="#156082" transform="translate(21.9867 43)"/></g></g><text fill="#156082" font-family="Aptos,Aptos_MSFontService,sans-serif" font-weight="400" font-size="32" transform="translate(425.987 424)">Python iDLE Shell Version 1.0.0</text></g></svg>